<svg width="446" height="440" viewBox="0 0 446 440" fill="none" xmlns="http://www.w3.org/2000/svg">
<g filter="url(#filter0_d_14_311)">
<g filter="url(#filter1_d_14_311)">
<path fill-rule="evenodd" clip-rule="evenodd" d="M137.416 179.872C164.838 176.603 195.624 140.111 192.406 113.112C189.187 86.1133 163.834 76.7536 136.412 80.0226C108.989 83.2915 89.3681 107.828 92.5866 134.827C95.805 161.826 109.993 183.141 137.416 179.872ZM142.986 166.995C162.766 164.063 184.296 137.015 181.409 117.54C178.522 98.0651 159.979 91.8138 140.198 94.7458C120.418 97.6778 106.722 115.842 109.609 135.317C112.496 154.793 123.205 169.927 142.986 166.995Z" fill="#0099FF"/>
</g>
<path fill-rule="evenodd" clip-rule="evenodd" d="M300.05 154.629C272.433 154.629 237.545 121.243 237.545 93.3897C237.545 65.5365 261.611 52.9418 289.228 52.9418C316.845 52.9418 339.232 75.5212 339.232 103.374C339.232 131.228 327.667 154.629 300.05 154.629ZM296.331 148.289C274.576 148.91 246.342 123.393 245.717 101.451C245.091 79.5099 263.767 69.0477 285.522 68.4274C307.277 67.8071 325.42 85.0914 326.046 107.033C326.671 128.974 318.086 147.669 296.331 148.289Z" fill="#0099FF"/>
<path d="M237.002 79.5742C268.812 79.5742 294.959 87.3477 315.442 102.895C335.926 118.154 346.409 140.898 346.891 171.128V176.311H272.065V174.583C272.065 165.946 269.415 158.748 264.113 152.99C258.811 147.232 250.738 144.353 239.894 144.353C229.291 144.353 221.097 146.225 215.314 149.967C209.771 153.71 207 158.317 207 163.787C207 171.56 210.856 177.318 218.567 181.061C226.278 184.804 238.689 188.691 255.799 192.721C275.801 197.616 292.188 202.798 304.96 208.268C317.973 213.451 329.299 222.088 338.938 234.18C348.578 246.272 353.518 262.683 353.759 283.412C353.759 318.536 343.758 344.592 323.756 361.578C303.996 378.565 277.488 387.058 244.232 387.058C205.433 387.058 175.19 379.285 153.501 363.738C132.054 348.191 121.33 320.696 121.33 281.253H196.878C196.878 296.224 200.132 306.3 206.638 311.483C213.145 316.377 223.266 318.824 237.002 318.824C247.124 318.824 255.438 317.529 261.944 314.938C268.692 312.346 272.065 307.02 272.065 298.959C272.065 291.761 268.33 286.435 260.86 282.98C253.63 279.237 241.701 275.351 225.074 271.32C204.831 266.138 188.083 260.811 174.828 255.341C161.574 249.583 150.007 240.226 140.127 227.27C130.246 214.314 125.306 196.752 125.306 174.583C125.306 142.05 135.789 118.154 156.755 102.895C177.961 87.3477 204.71 79.5742 237.002 79.5742Z" fill="#0099FF"/>
</g>
<defs>
<filter id="filter0_d_14_311" x="-4" y="0" width="454" height="448" filterUnits="userSpaceOnUse" color-interpolation-filters="sRGB">
<feFlood flood-opacity="0" result="BackgroundImageFix"/>
<feColorMatrix in="SourceAlpha" type="matrix" values="0 0 0 0 0 0 0 0 0 0 0 0 0 0 0 0 0 0 127 0" result="hardAlpha"/>
<feOffset dy="4"/>
<feGaussianBlur stdDeviation="2"/>
<feComposite in2="hardAlpha" operator="out"/>
<feColorMatrix type="matrix" values="0 0 0 0 0 0 0 0 0 0 0 0 0 0 0 0 0 0 0.25 0"/>
<feBlend mode="normal" in2="BackgroundImageFix" result="effect1_dropShadow_14_311"/>
<feBlend mode="normal" in="SourceGraphic" in2="effect1_dropShadow_14_311" result="shape"/>
</filter>
<filter id="filter1_d_14_311" x="88.241" y="79.3984" width="108.397" height="108.806" filterUnits="userSpaceOnUse" color-interpolation-filters="sRGB">
<feFlood flood-opacity="0" result="BackgroundImageFix"/>
<feColorMatrix in="SourceAlpha" type="matrix" values="0 0 0 0 0 0 0 0 0 0 0 0 0 0 0 0 0 0 127 0" result="hardAlpha"/>
<feOffset dy="4"/>
<feGaussianBlur stdDeviation="2"/>
<feComposite in2="hardAlpha" operator="out"/>
<feColorMatrix type="matrix" values="0 0 0 0 0 0 0 0 0 0 0 0 0 0 0 0 0 0 0.25 0"/>
<feBlend mode="normal" in2="BackgroundImageFix" result="effect1_dropShadow_14_311"/>
<feBlend mode="normal" in="SourceGraphic" in2="effect1_dropShadow_14_311" result="shape"/>
</filter>
</defs>
</svg>
