<svg width="446" height="440" viewBox="0 0 446 440" fill="none" xmlns="http://www.w3.org/2000/svg">
<g filter="url(#filter0_d_14_311)">
<g filter="url(#filter1_d_14_311)">
<mask id="path-1-inside-1_14_311" fill="white">
<path fill-rule="evenodd" clip-rule="evenodd" d="M137.416 179.872C164.838 176.603 195.624 140.111 192.406 113.112C189.187 86.1132 163.834 76.7536 136.412 80.0226C108.989 83.2915 89.3681 107.828 92.5866 134.827C95.805 161.826 109.993 183.141 137.416 179.872ZM142.986 166.995C162.766 164.063 184.296 137.015 181.409 117.54C178.522 98.0651 159.979 91.8138 140.198 94.7458C120.418 97.6778 106.722 115.842 109.609 135.317C112.496 154.793 123.205 169.927 142.986 166.995Z"/>
</mask>
<path fill-rule="evenodd" clip-rule="evenodd" d="M137.416 179.872C164.838 176.603 195.624 140.111 192.406 113.112C189.187 86.1132 163.834 76.7536 136.412 80.0226C108.989 83.2915 89.3681 107.828 92.5866 134.827C95.805 161.826 109.993 183.141 137.416 179.872ZM142.986 166.995C162.766 164.063 184.296 137.015 181.409 117.54C178.522 98.0651 159.979 91.8138 140.198 94.7458C120.418 97.6778 106.722 115.842 109.609 135.317C112.496 154.793 123.205 169.927 142.986 166.995Z" fill="#0099FF"/>
<path d="M192.406 113.112L193.398 112.994L192.406 113.112ZM137.416 179.872L137.297 178.879L137.416 179.872ZM136.412 80.0226L136.293 79.0296L136.412 80.0226ZM92.5866 134.827L91.5936 134.946L92.5866 134.827ZM181.409 117.54L182.398 117.394L181.409 117.54ZM142.986 166.995L143.132 167.985L142.986 166.995ZM140.198 94.7458L140.052 93.7566L140.198 94.7458ZM109.609 135.317L108.62 135.464L109.609 135.317ZM191.413 113.23C192.976 126.344 186.268 141.948 175.632 154.752C165 167.55 150.66 177.286 137.297 178.879L137.534 180.865C151.594 179.189 166.358 169.045 177.17 156.03C187.978 143.02 195.054 126.879 193.398 112.994L191.413 113.23ZM136.53 81.0155C150.114 79.3963 163.088 80.9192 173.023 86.1034C182.911 91.2636 189.844 100.073 191.413 113.23L193.398 112.994C191.748 99.1521 184.396 89.7825 173.948 84.3303C163.546 78.9023 150.133 77.3799 136.293 79.0296L136.53 81.0155ZM93.5795 134.709C90.4282 108.273 109.641 84.2209 136.53 81.0155L136.293 79.0296C108.337 82.3622 88.308 107.384 91.5936 134.946L93.5795 134.709ZM137.297 178.879C123.904 180.476 113.827 176.081 106.672 168.036C99.4773 159.946 95.1745 148.089 93.5795 134.709L91.5936 134.946C93.2171 148.565 97.6177 160.864 105.177 169.365C112.776 177.909 123.505 182.538 137.534 180.865L137.297 178.879ZM180.42 117.687C181.806 127.04 177.322 138.397 169.911 147.855C162.504 157.306 152.382 164.592 142.839 166.006L143.132 167.985C153.37 166.467 163.904 158.762 171.485 149.088C179.062 139.42 183.899 127.516 182.398 117.394L180.42 117.687ZM140.345 95.735C150.108 94.2879 159.47 95.1242 166.702 98.6397C173.887 102.132 179.027 108.29 180.42 117.687L182.398 117.394C180.904 107.315 175.329 100.61 167.576 96.841C159.87 93.0951 150.069 92.2718 140.052 93.7566L140.345 95.735ZM110.598 135.171C107.795 116.256 121.096 98.5882 140.345 95.735L140.052 93.7566C119.739 96.7674 105.65 115.428 108.62 135.464L110.598 135.171ZM142.839 166.006C133.266 167.425 125.972 164.482 120.69 158.873C115.368 153.222 112.024 144.789 110.598 135.171L108.62 135.464C110.081 145.321 113.535 154.193 119.234 160.245C124.974 166.339 132.925 169.498 143.132 167.985L142.839 166.006Z" fill="#0099FF" mask="url(#path-1-inside-1_14_311)"/>
</g>
<path fill-rule="evenodd" clip-rule="evenodd" d="M300.05 154.629C272.433 154.629 237.545 121.243 237.545 93.3897C237.545 65.5365 261.611 52.9418 289.228 52.9418C316.845 52.9418 339.232 75.5212 339.232 103.374C339.232 131.228 327.667 154.629 300.05 154.629ZM296.331 148.289C274.576 148.91 246.342 123.393 245.717 101.451C245.091 79.5099 263.767 69.0477 285.522 68.4274C307.277 67.8071 325.42 85.0914 326.046 107.033C326.671 128.974 318.086 147.669 296.331 148.289Z" fill="#0099FF"/>
<path d="M237.002 79.5742C268.812 79.5742 294.959 87.3477 315.442 102.895C335.926 118.154 346.409 140.898 346.891 171.128V176.311H272.065V174.583C272.065 165.946 269.415 158.748 264.113 152.99C258.811 147.232 250.738 144.353 239.894 144.353C229.291 144.353 221.097 146.225 215.314 149.967C209.771 153.71 207 158.317 207 163.787C207 171.56 210.856 177.318 218.567 181.061C226.278 184.804 238.689 188.691 255.799 192.721C275.801 197.616 292.188 202.798 304.96 208.268C317.973 213.451 329.299 222.088 338.938 234.18C348.578 246.272 353.518 262.683 353.759 283.412C353.759 318.536 343.758 344.592 323.756 361.578C303.996 378.565 277.488 387.058 244.232 387.058C205.433 387.058 175.19 379.285 153.501 363.738C132.054 348.191 121.33 320.696 121.33 281.253H196.878C196.878 296.224 200.132 306.3 206.638 311.483C213.145 316.377 223.266 318.824 237.002 318.824C247.124 318.824 255.438 317.529 261.944 314.938C268.692 312.346 272.065 307.02 272.065 298.959C272.065 291.761 268.33 286.435 260.86 282.98C253.63 279.237 241.701 275.351 225.074 271.32C204.831 266.138 188.083 260.811 174.828 255.341C161.574 249.583 150.007 240.226 140.127 227.27C130.246 214.314 125.306 196.752 125.306 174.583C125.306 142.05 135.789 118.154 156.755 102.895C177.961 87.3477 204.71 79.5742 237.002 79.5742Z" fill="#0099FF"/>
</g>
<defs>
<filter id="filter0_d_14_311" x="-4" y="0" width="454" height="448" filterUnits="userSpaceOnUse" color-interpolation-filters="sRGB">
<feFlood flood-opacity="0" result="BackgroundImageFix"/>
<feColorMatrix in="SourceAlpha" type="matrix" values="0 0 0 0 0 0 0 0 0 0 0 0 0 0 0 0 0 0 127 0" result="hardAlpha"/>
<feOffset dy="4"/>
<feGaussianBlur stdDeviation="2"/>
<feComposite in2="hardAlpha" operator="out"/>
<feColorMatrix type="matrix" values="0 0 0 0 0 0 0 0 0 0 0 0 0 0 0 0 0 0 0.25 0"/>
<feBlend mode="normal" in2="BackgroundImageFix" result="effect1_dropShadow_14_311"/>
<feBlend mode="normal" in="SourceGraphic" in2="effect1_dropShadow_14_311" result="shape"/>
</filter>
<filter id="filter1_d_14_311" x="88.241" y="79.3984" width="108.397" height="108.806" filterUnits="userSpaceOnUse" color-interpolation-filters="sRGB">
<feFlood flood-opacity="0" result="BackgroundImageFix"/>
<feColorMatrix in="SourceAlpha" type="matrix" values="0 0 0 0 0 0 0 0 0 0 0 0 0 0 0 0 0 0 127 0" result="hardAlpha"/>
<feOffset dy="4"/>
<feGaussianBlur stdDeviation="2"/>
<feComposite in2="hardAlpha" operator="out"/>
<feColorMatrix type="matrix" values="0 0 0 0 0 0 0 0 0 0 0 0 0 0 0 0 0 0 0.25 0"/>
<feBlend mode="normal" in2="BackgroundImageFix" result="effect1_dropShadow_14_311"/>
<feBlend mode="normal" in="SourceGraphic" in2="effect1_dropShadow_14_311" result="shape"/>
</filter>
</defs>
</svg>
